<svg xmlns="http://www.w3.org/2000/svg" width="1200" height="900" viewBox="0 0 1200 900">
  <defs>
    <linearGradient id="g" x1="0" y1="0" x2="1" y2="1">
      <stop offset="0" stop-color="#151311"/>
      <stop offset="1" stop-color="#0b0b0a"/>
    </linearGradient>
    <linearGradient id="w" x1="0" y1="0" x2="1" y2="0">
      <stop offset="0" stop-color="#8b5a35" stop-opacity=".18"/>
      <stop offset=".5" stop-color="#caa76a" stop-opacity=".22"/>
      <stop offset="1" stop-color="#8b5a35" stop-opacity=".18"/>
    </linearGradient>
  </defs>
  <rect width="1200" height="900" fill="url(#g)"/>
  <g fill="none" stroke="url(#w)" stroke-width="4" opacity=".85">
    <path d="M-100 120 C 240 40, 520 220, 1300 100"/>
    <path d="M-100 260 C 240 180, 520 360, 1300 240"/>
    <path d="M-100 400 C 240 320, 520 500, 1300 380"/>
    <path d="M-100 540 C 240 460, 520 640, 1300 520"/>
    <path d="M-100 680 C 240 600, 520 780, 1300 660"/>
  </g>
  <g opacity=".2">
    <rect x="140" y="160" width="920" height="580" rx="38" fill="#caa76a" fill-opacity=".06" stroke="#fff" stroke-opacity=".12"/>
    <path d="M220 240h760" stroke="#fff" stroke-opacity=".12" stroke-width="2"/>
    <path d="M220 320h620" stroke="#fff" stroke-opacity=".12" stroke-width="2"/>
    <path d="M220 400h700" stroke="#fff" stroke-opacity=".12" stroke-width="2"/>
    <path d="M220 480h520" stroke="#fff" stroke-opacity=".12" stroke-width="2"/>
  </g>
</svg>

