<svg xmlns="http://www.w3.org/2000/svg" width="1400" height="900" viewBox="0 0 1400 900">
  <defs>
    <linearGradient id="bg" x1="0" y1="0" x2="1" y2="1">
      <stop offset="0" stop-color="#1b130d"/>
      <stop offset="1" stop-color="#0b0b0a"/>
    </linearGradient>
    <linearGradient id="wood" x1="0" y1="0" x2="1" y2="0">
      <stop offset="0" stop-color="#caa76a" stop-opacity=".18"/>
      <stop offset=".5" stop-color="#8b5a35" stop-opacity=".22"/>
      <stop offset="1" stop-color="#caa76a" stop-opacity=".16"/>
    </linearGradient>
    <filter id="blur" x="-20%" y="-20%" width="140%" height="140%">
      <feGaussianBlur stdDeviation="22"/>
    </filter>
  </defs>
  <rect width="1400" height="900" fill="url(#bg)"/>
  <g fill="none" stroke="url(#wood)" stroke-width="3" opacity=".85">
    <path d="M-100 160 C 260 60, 560 260, 1500 120"/>
    <path d="M-100 260 C 260 160, 560 360, 1500 220"/>
    <path d="M-100 360 C 260 260, 560 460, 1500 320"/>
    <path d="M-100 460 C 260 360, 560 560, 1500 420"/>
    <path d="M-100 560 C 260 460, 560 660, 1500 520"/>
    <path d="M-100 660 C 260 560, 560 760, 1500 620"/>
  </g>
  <g opacity=".55" filter="url(#blur)">
    <circle cx="320" cy="180" r="140" fill="#caa76a" fill-opacity=".22"/>
    <circle cx="1140" cy="240" r="180" fill="#8b5a35" fill-opacity=".20"/>
    <circle cx="980" cy="720" r="210" fill="#caa76a" fill-opacity=".14"/>
  </g>
  <g opacity=".18" fill="#fff">
    <circle cx="180" cy="740" r="2"/>
    <circle cx="240" cy="780" r="2"/>
    <circle cx="320" cy="810" r="1.6"/>
    <circle cx="520" cy="760" r="1.8"/>
    <circle cx="740" cy="820" r="1.7"/>
    <circle cx="980" cy="790" r="1.9"/>
    <circle cx="1180" cy="780" r="1.7"/>
  </g>
</svg>

