<svg xmlns="http://www.w3.org/2000/svg" width="520" height="520" viewBox="0 0 520 520">
  <defs>
    <linearGradient id="g" x1="0" y1="0" x2="1" y2="1">
      <stop offset="0" stop-color="#d8b178" stop-opacity=".20"/>
      <stop offset="1" stop-color="#8a5b34" stop-opacity=".18"/>
    </linearGradient>
  </defs>
  <rect width="520" height="520" fill="url(#g)"/>
  <g fill="none" stroke="#000" stroke-opacity=".22" stroke-width="1.2">
    <path d="M-40 60 C 120 0, 260 140, 560 80"/>
    <path d="M-40 140 C 120 80, 260 220, 560 160"/>
    <path d="M-40 220 C 120 160, 260 300, 560 240"/>
    <path d="M-40 300 C 120 240, 260 380, 560 320"/>
    <path d="M-40 380 C 120 320, 260 460, 560 400"/>
    <path d="M-40 460 C 120 400, 260 540, 560 480"/>
  </g>
  <g fill="none" stroke="#fff" stroke-opacity=".14" stroke-width="0.9">
    <path d="M-40 95 C 170 40, 300 170, 560 120"/>
    <path d="M-40 255 C 170 200, 300 330, 560 280"/>
    <path d="M-40 415 C 170 360, 300 490, 560 440"/>
  </g>
  <g fill="none" stroke="#000" stroke-opacity=".10" stroke-width="2.2">
    <path d="M-80 10 C 90 40, 260 0, 600 30"/>
    <path d="M-80 510 C 90 480, 260 520, 600 490"/>
  </g>
</svg>
